<mxfile host="65bd71144e">
    <diagram id="e4Nt73kR54sI_E4-yXCo" name="Page-1">
        <mxGraphModel dx="969" dy="2606" grid="1" gridSize="10" guides="1" tooltips="1" connect="1" arrows="1" fold="1" page="1" pageScale="1" pageWidth="850" pageHeight="1100" math="0" shadow="0">
            <root>
                <mxCell id="0"/>
                <mxCell id="1" parent="0"/>
                <mxCell id="6" value="" style="edgeStyle=none;html=1;" parent="1" source="2" target="5" edge="1">
                    <mxGeometry relative="1" as="geometry"/>
                </mxCell>
                <mxCell id="2" value="&lt;h4&gt;Model Users:&lt;br&gt;id&amp;nbsp;&lt;br&gt;nomeCliente&lt;br&gt;nomeCorretor&lt;br&gt;email&lt;br&gt;localizacao&lt;br&gt;creci&lt;br&gt;statusCreci&lt;br&gt;role&lt;br&gt;&lt;br&gt;&lt;/h4&gt;" style="rounded=0;whiteSpace=wrap;html=1;fillColor=#908CFF;" parent="1" vertex="1">
                    <mxGeometry x="315" y="-2180" width="205" height="180" as="geometry"/>
                </mxCell>
                <mxCell id="14" value="" style="edgeStyle=none;html=1;" parent="1" source="5" target="13" edge="1">
                    <mxGeometry relative="1" as="geometry"/>
                </mxCell>
                <mxCell id="5" value="&lt;h4&gt;Enum Roles:&lt;br&gt;[user]&lt;br&gt;[corretor]&lt;br&gt;[cliente]&lt;br&gt;&lt;br&gt;&lt;/h4&gt;" style="rounded=0;whiteSpace=wrap;html=1;fillColor=#908CFF;" parent="1" vertex="1">
                    <mxGeometry x="320" y="-1950" width="200" height="170" as="geometry"/>
                </mxCell>
                <mxCell id="9" value="&lt;h4&gt;Model Corretor:&lt;br&gt;id&lt;br&gt;nomeCorretor&lt;br&gt;creci&lt;br&gt;statusCreci&lt;br&gt;localizacao&lt;br&gt;&lt;/h4&gt;" style="rounded=0;whiteSpace=wrap;html=1;fillColor=#908CFF;" parent="1" vertex="1">
                    <mxGeometry x="600" y="-1700" width="200" height="170" as="geometry"/>
                </mxCell>
                <mxCell id="11" value="&lt;h4&gt;Model Cliente:&lt;br&gt;id&lt;br&gt;nome&lt;br&gt;localizacao&lt;br&gt;&lt;/h4&gt;" style="rounded=0;whiteSpace=wrap;html=1;fillColor=#908CFF;" parent="1" vertex="1">
                    <mxGeometry x="40" y="-1700" width="200" height="170" as="geometry"/>
                </mxCell>
                <mxCell id="18" value="" style="edgeStyle=none;html=1;" parent="1" source="13" target="11" edge="1">
                    <mxGeometry relative="1" as="geometry"/>
                </mxCell>
                <mxCell id="19" value="" style="edgeStyle=none;html=1;" parent="1" source="13" target="9" edge="1">
                    <mxGeometry relative="1" as="geometry"/>
                </mxCell>
                <mxCell id="13" value="&lt;h4&gt;Model User:&lt;br&gt;Email&lt;/h4&gt;" style="rounded=0;whiteSpace=wrap;html=1;fillColor=#908CFF;" parent="1" vertex="1">
                    <mxGeometry x="320" y="-1700" width="200" height="170" as="geometry"/>
                </mxCell>
            </root>
        </mxGraphModel>
    </diagram>
</mxfile>